<?xml version="1.0" encoding="UTF-8" standalone="no"?>
<!DOCTYPE svg PUBLIC "-//W3C//DTD SVG 1.1//EN"
 "http://www.w3.org/Graphics/SVG/1.1/DTD/svg11.dtd">
<!-- Generated by graphviz version 2.38.0 (20140413.2041)
 -->
<!-- Title: G Pages: 1 -->
<svg width="147pt" height="327pt"
 viewBox="0.00 0.00 147.41 327.00" xmlns="http://www.w3.org/2000/svg" xmlns:xlink="http://www.w3.org/1999/xlink">
<g id="graph0" class="graph" transform="scale(1 1) rotate(0) translate(4 323)">
<title>G</title>
<polygon fill="white" stroke="none" points="-4,4 -4,-323 143.41,-323 143.41,4 -4,4"/>
<g id="clust1" class="cluster"><title>cluster_Global</title>
<path fill="none" stroke="gray" d="M20,-8C20,-8 119.41,-8 119.41,-8 125.41,-8 131.41,-14 131.41,-20 131.41,-20 131.41,-299 131.41,-299 131.41,-305 125.41,-311 119.41,-311 119.41,-311 20,-311 20,-311 14,-311 8,-305 8,-299 8,-299 8,-20 8,-20 8,-14 14,-8 20,-8"/>
<text text-anchor="middle" x="69.7048" y="-298.2" font-family="Times,serif" font-size="11.00" fill="gray">Global</text>
</g>
<g id="clust2" class="cluster"><title>cluster_\Pinvoice</title>
<path fill="none" stroke="gray" d="M28,-16C28,-16 111.41,-16 111.41,-16 117.41,-16 123.41,-22 123.41,-28 123.41,-28 123.41,-272 123.41,-272 123.41,-278 117.41,-284 111.41,-284 111.41,-284 28,-284 28,-284 22,-284 16,-278 16,-272 16,-272 16,-28 16,-28 16,-22 22,-16 28,-16"/>
<text text-anchor="middle" x="69.7048" y="-271.2" font-family="Times,serif" font-size="11.00" fill="gray">Pinvoice</text>
</g>
<g id="clust3" class="cluster"><title>cluster_\Pinvoice\Pipedrive</title>
<path fill="none" stroke="gray" d="M36,-24C36,-24 103.41,-24 103.41,-24 109.41,-24 115.41,-30 115.41,-36 115.41,-36 115.41,-245 115.41,-245 115.41,-251 109.41,-257 103.41,-257 103.41,-257 36,-257 36,-257 30,-257 24,-251 24,-245 24,-245 24,-36 24,-36 24,-30 30,-24 36,-24"/>
<text text-anchor="middle" x="69.7048" y="-244.2" font-family="Times,serif" font-size="11.00" fill="gray">Pipedrive</text>
</g>
<!-- \\Pinvoice\\Pipedrive\\Deals -->
<g id="node1" class="node"><title>\\Pinvoice\\Pipedrive\\Deals</title>
<polygon fill="none" stroke="black" points="96.7048,-230 42.7048,-230 42.7048,-194 96.7048,-194 96.7048,-230"/>
<text text-anchor="middle" x="69.7048" y="-208.7" font-family="Courier,monospace" font-size="11.00">Deals</text>
</g>
<!-- \\Pinvoice\\Pipedrive\\Pipelines -->
<g id="node2" class="node"><title>\\Pinvoice\\Pipedrive\\Pipelines</title>
<polygon fill="none" stroke="black" points="107.616,-176 31.794,-176 31.794,-140 107.616,-140 107.616,-176"/>
<text text-anchor="middle" x="69.7048" y="-154.7" font-family="Courier,monospace" font-size="11.00">Pipelines</text>
</g>
<!-- \\Pinvoice\\Pipedrive\\Stages -->
<g id="node3" class="node"><title>\\Pinvoice\\Pipedrive\\Stages</title>
<polygon fill="none" stroke="black" points="97.3127,-122 42.097,-122 42.097,-86 97.3127,-86 97.3127,-122"/>
<text text-anchor="middle" x="69.7048" y="-100.7" font-family="Courier,monospace" font-size="11.00">Stages</text>
</g>
<!-- \\Pinvoice\\Pipedrive\\API -->
<g id="node4" class="node"><title>\\Pinvoice\\Pipedrive\\API</title>
<polygon fill="none" stroke="black" points="96.7048,-68 42.7048,-68 42.7048,-32 96.7048,-32 96.7048,-68"/>
<text text-anchor="middle" x="69.7048" y="-46.7" font-family="Courier,monospace" font-size="11.00">API</text>
</g>
</g>
</svg>
